name C:\Users\u0101727\Documents\MyRepositories\upper-imu-dc\Results\main_mocap_tracking\Case_10\FLX01_linearAccelerations_groundFrame.mot
datacolumns 4
datarows 82
range 0.51000000 1.32000000
endheader 
time	radius_imu_x	radius_imu_y	radius_imu_z	
          0.51000000	          1.66443216	         11.23771929	          3.58414357	
          0.52000000	          1.53583124	         10.63564115	          2.03407209	
          0.53000000	          1.32487533	         10.33815176	          1.01503788	
          0.54000000	          1.09649561	         10.15463531	          0.21277485	
          0.55000000	          1.23225516	          9.74477078	         -0.66568457	
          0.56000000	          1.28492946	          9.91458059	         -0.62749625	
          0.57000000	          1.23497800	         10.12345600	          0.12697435	
          0.58000000	          1.47063133	         10.16692808	          0.45987245	
          0.59000000	          1.55574380	         10.20396876	          0.68698173	
          0.60000000	          1.49824156	         10.24536655	          0.86555401	
          0.61000000	          1.33225286	         10.29719471	          1.05711355	
          0.62000000	          1.11382804	         10.36699929	          1.26186541	
          0.63000000	          0.88542047	         10.45413489	          1.44700242	
          0.64000000	          0.67388635	         10.55131962	          1.56796476	
          0.65000000	          0.48714332	         10.64717423	          1.59523259	
          0.66000000	          0.31338577	         10.73017067	          1.53100423	
          0.67000000	          0.12422592	         10.79153237	          1.40972046	
          0.68000000	         -0.11534229	         10.82653754	          1.28336937	
          0.69000000	         -0.43258901	         10.83478547	          1.20100687	
          0.70000000	         -0.83542245	         10.81985980	          1.19345950	
          0.71000000	         -1.30993462	         10.78854622	          1.26861893	
          0.72000000	         -1.82728415	         10.74969685	          1.41565426	
          0.73000000	         -2.35434717	         10.71299395	          1.61326327	
          0.74000000	         -2.86228767	         10.68775558	          1.83809158	
          0.75000000	         -3.33059975	         10.68214203	          2.07089317	
          0.76000000	         -3.74760495	         10.70224417	          2.29963227	
          0.77000000	         -4.11014425	         10.75096206	          2.51978904	
          0.78000000	         -4.42374923	         10.82653232	          2.73312802	
          0.79000000	         -4.70217806	         10.92094336	          2.94627692	
          0.80000000	         -4.96434593	         11.01999227	          3.16886526	
          0.81000000	         -5.22857130	         11.10681807	          3.41027416	
          0.82000000	         -5.50628678	         11.16834874	          3.67480438	
          0.83000000	         -5.79777746	         11.20107634	          3.95666069	
          0.84000000	         -6.09192350	         11.21278041	          4.23739014	
          0.85000000	         -6.37096895	         11.21971906	          4.48832925	
          0.86000000	         -6.61888978	         11.24106355	          4.67827865	
          0.87000000	         -6.82934282	         11.29265300	          4.78342548	
          0.88000000	         -7.00909363	         11.38172615	          4.79494460	
          0.89000000	         -7.17565959	         11.50437949	          4.72063934	
          0.90000000	         -7.35094814	         11.64721026	          4.57967236	
          0.91000000	         -7.55455659	         11.79252798	          4.39295303	
          0.92000000	         -7.79821973	         11.92362176	          4.17335564	
          0.93000000	         -8.08382791	         12.02588378	          3.92085678	
          0.94000000	         -8.40255381	         12.08534514	          3.62196853	
          0.95000000	         -8.73436897	         12.08926876	          3.25136698	
          0.96000000	         -9.04684256	         12.03066949	          2.77496503	
          0.97000000	         -9.29669533	         11.91399472	          2.15832730	
          0.98000000	         -9.43538093	         11.75849529	          1.38088589	
          0.99000000	         -9.42187108	         11.59829767	          0.45432982	
          1.00000000	         -9.24202431	         11.46132224	         -0.57415185	
          1.01000000	         -8.93595981	         11.40349805	         -1.56369271	
          1.02000000	         -8.54883056	         11.43814394	         -2.45199170	
          1.03000000	         -8.15009771	         11.51436646	         -3.16803701	
          1.04000000	         -7.76211564	         11.61050263	         -3.70945981	
          1.05000000	         -7.41786301	         11.67469597	         -4.06956680	
          1.06000000	         -7.12293657	         11.68506080	         -4.27694717	
          1.07000000	         -6.83960327	         11.62070867	         -4.41659856	
          1.08000000	         -6.52917841	         11.39062365	         -4.54779768	
          1.09000000	         -6.16776724	         11.11632542	         -4.72027911	
          1.10000000	         -5.70421201	         10.82286244	         -5.01138613	
          1.11000000	         -5.10429552	         10.53138451	         -5.49935090	
          1.12000000	         -4.34473227	         10.24498517	         -6.23094333	
          1.13000000	         -3.41749639	          9.95554111	         -7.20724361	
          1.14000000	         -2.33104356	          9.65324424	         -8.38150687	
          1.15000000	         -1.11081486	          9.33499007	         -9.67163613	
          1.16000000	          0.20222192	          9.00718071	        -10.97863244	
          1.17000000	          1.55635937	          8.68429834	        -12.20351027	
          1.18000000	          2.89394433	          8.38854721	        -13.26146813	
          1.19000000	          4.15669224	          8.15170915	        -14.09247326	
          1.20000000	          5.30843609	          8.00492509	        -14.68717588	
          1.21000000	          6.30322427	          8.00098398	        -15.05721064	
          1.22000000	          7.18359013	          8.09787218	        -15.21205596	
          1.23000000	          7.37149938	          8.40098417	        -15.28950319	
          1.24000000	          7.95166962	          9.16003410	        -15.02632809	
          1.25000000	          8.47297800	          9.40644532	        -14.36028910	
          1.26000000	          8.07203393	         10.63488003	        -13.23209366	
          1.27000000	          6.85554957	         11.96243037	        -12.02891045	
          1.28000000	          5.32384882	         12.86220866	        -10.47969930	
          1.29000000	          3.67250883	         13.19576389	         -8.79737783	
          1.30000000	          2.13238534	         13.00866237	         -7.10772905	
          1.31000000	          0.80862761	         12.46773462	         -5.55393240	
          1.32000000	         -0.26955821	         11.72937133	         -4.22731804	
